<mxfile host="www.draw.io" modified="2020-03-10T00:40:34.996Z" agent="Mozilla/5.0 (Macintosh; Intel Mac OS X 10_13_6) AppleWebKit/537.36 (KHTML, like Gecko) Chrome/80.0.3987.132 Safari/537.36" etag="7KWMvIH7DVRBVD1B6rVJ" version="12.8.2" type="github">
  <diagram id="RR_c8ggQtL3WIy5Bg4WH" name="Page-1">
    <mxGraphModel dx="900" dy="623" grid="0" gridSize="10" guides="1" tooltips="1" connect="1" arrows="1" fold="1" page="0" pageScale="1" pageWidth="827" pageHeight="1169" background="#FFFFFF" math="0" shadow="0">
      <root>
        <mxCell id="0" />
        <mxCell id="1" parent="0" />
        <mxCell id="zOEphUjOcovV0QVA03cs-1" value="" style="group" parent="1" vertex="1" connectable="0">
          <mxGeometry x="1132" y="78" width="86" height="105" as="geometry" />
        </mxCell>
        <mxCell id="zOEphUjOcovV0QVA03cs-2" value="" style="outlineConnect=0;fillColor=#ffe6cc;strokeColor=#d79b00;dashed=0;verticalLabelPosition=bottom;verticalAlign=top;align=center;html=1;fontSize=12;fontStyle=0;aspect=fixed;pointerEvents=1;shape=mxgraph.aws4.traditional_server;" parent="zOEphUjOcovV0QVA03cs-1" vertex="1">
          <mxGeometry x="12.70999999999998" width="60.58" height="105" as="geometry" />
        </mxCell>
        <mxCell id="zOEphUjOcovV0QVA03cs-3" value="&lt;font style=&quot;font-size: 14px&quot;&gt;子龙&lt;br&gt;接口&lt;br&gt;服务&lt;/font&gt;" style="text;html=1;strokeColor=none;fillColor=none;align=center;verticalAlign=middle;whiteSpace=wrap;rounded=0;dashed=1;" parent="zOEphUjOcovV0QVA03cs-1" vertex="1">
          <mxGeometry y="64" width="86" height="20" as="geometry" />
        </mxCell>
        <mxCell id="zOEphUjOcovV0QVA03cs-4" value="" style="group" parent="1" vertex="1" connectable="0">
          <mxGeometry x="215" y="201" width="86.00000000000006" height="109" as="geometry" />
        </mxCell>
        <mxCell id="zOEphUjOcovV0QVA03cs-5" value="" style="group" parent="zOEphUjOcovV0QVA03cs-4" vertex="1" connectable="0">
          <mxGeometry width="86.00000000000006" height="109" as="geometry" />
        </mxCell>
        <mxCell id="zOEphUjOcovV0QVA03cs-6" value="" style="outlineConnect=0;fillColor=#ffe6cc;strokeColor=#d79b00;dashed=0;verticalLabelPosition=bottom;verticalAlign=top;align=center;html=1;fontSize=12;fontStyle=0;aspect=fixed;pointerEvents=1;shape=mxgraph.aws4.generic_database;" parent="zOEphUjOcovV0QVA03cs-5" vertex="1">
          <mxGeometry x="0.5500000000000114" width="82.45" height="109" as="geometry" />
        </mxCell>
        <mxCell id="zOEphUjOcovV0QVA03cs-7" value="&lt;span style=&quot;font-size: 14px&quot;&gt;子龙&lt;br&gt;数据库&lt;/span&gt;" style="text;html=1;strokeColor=none;fillColor=none;align=center;verticalAlign=middle;whiteSpace=wrap;rounded=0;dashed=1;" parent="zOEphUjOcovV0QVA03cs-5" vertex="1">
          <mxGeometry y="43" width="86" height="20" as="geometry" />
        </mxCell>
        <mxCell id="zOEphUjOcovV0QVA03cs-8" value="" style="group" parent="1" vertex="1" connectable="0">
          <mxGeometry x="215" y="329" width="86.00000000000006" height="109" as="geometry" />
        </mxCell>
        <mxCell id="zOEphUjOcovV0QVA03cs-9" value="" style="group" parent="zOEphUjOcovV0QVA03cs-8" vertex="1" connectable="0">
          <mxGeometry width="86.00000000000006" height="109" as="geometry" />
        </mxCell>
        <mxCell id="zOEphUjOcovV0QVA03cs-10" value="" style="outlineConnect=0;fillColor=#ffe6cc;strokeColor=#d79b00;dashed=0;verticalLabelPosition=bottom;verticalAlign=top;align=center;html=1;fontSize=12;fontStyle=0;aspect=fixed;pointerEvents=1;shape=mxgraph.aws4.generic_database;" parent="zOEphUjOcovV0QVA03cs-9" vertex="1">
          <mxGeometry x="0.5500000000000114" width="82.45" height="109" as="geometry" />
        </mxCell>
        <mxCell id="zOEphUjOcovV0QVA03cs-11" value="&lt;span style=&quot;font-size: 14px&quot;&gt;小暖&lt;br&gt;&lt;/span&gt;数据库" style="text;html=1;strokeColor=none;fillColor=none;align=center;verticalAlign=middle;whiteSpace=wrap;rounded=0;dashed=1;" parent="zOEphUjOcovV0QVA03cs-9" vertex="1">
          <mxGeometry y="43" width="86" height="20" as="geometry" />
        </mxCell>
        <mxCell id="zOEphUjOcovV0QVA03cs-12" value="" style="group" parent="1" vertex="1" connectable="0">
          <mxGeometry x="215" y="453" width="86.00000000000006" height="109" as="geometry" />
        </mxCell>
        <mxCell id="zOEphUjOcovV0QVA03cs-13" value="" style="outlineConnect=0;fillColor=#ffe6cc;strokeColor=#d79b00;dashed=0;verticalLabelPosition=bottom;verticalAlign=top;align=center;html=1;fontSize=12;fontStyle=0;aspect=fixed;pointerEvents=1;shape=mxgraph.aws4.generic_database;" parent="zOEphUjOcovV0QVA03cs-12" vertex="1">
          <mxGeometry x="0.5500000000000114" width="82.45" height="109" as="geometry" />
        </mxCell>
        <mxCell id="zOEphUjOcovV0QVA03cs-14" value="&lt;span style=&quot;font-size: 14px&quot;&gt;其他&lt;br&gt;&lt;/span&gt;数据库" style="text;html=1;strokeColor=none;fillColor=none;align=center;verticalAlign=middle;whiteSpace=wrap;rounded=0;dashed=1;" parent="zOEphUjOcovV0QVA03cs-12" vertex="1">
          <mxGeometry y="43" width="86" height="20" as="geometry" />
        </mxCell>
        <mxCell id="zOEphUjOcovV0QVA03cs-15" value="" style="group" parent="1" vertex="1" connectable="0">
          <mxGeometry x="536" y="201" width="160" height="335" as="geometry" />
        </mxCell>
        <mxCell id="zOEphUjOcovV0QVA03cs-16" value="" style="group" parent="zOEphUjOcovV0QVA03cs-15" vertex="1" connectable="0">
          <mxGeometry y="25" width="160" height="310" as="geometry" />
        </mxCell>
        <mxCell id="zOEphUjOcovV0QVA03cs-17" value="" style="rounded=1;whiteSpace=wrap;html=1;dashed=1;" parent="zOEphUjOcovV0QVA03cs-16" vertex="1">
          <mxGeometry width="160" height="310" as="geometry" />
        </mxCell>
        <mxCell id="zOEphUjOcovV0QVA03cs-18" value="" style="outlineConnect=0;fontColor=#232F3E;gradientColor=none;fillColor=#232F3E;strokeColor=none;dashed=0;verticalLabelPosition=bottom;verticalAlign=top;align=center;html=1;fontSize=12;fontStyle=0;aspect=fixed;pointerEvents=1;shape=mxgraph.aws4.forums;" parent="zOEphUjOcovV0QVA03cs-16" vertex="1">
          <mxGeometry x="15" y="20" width="130" height="126.67" as="geometry" />
        </mxCell>
        <mxCell id="zOEphUjOcovV0QVA03cs-19" value="" style="outlineConnect=0;fontColor=#232F3E;gradientColor=none;fillColor=#232F3E;strokeColor=none;dashed=0;verticalLabelPosition=bottom;verticalAlign=top;align=center;html=1;fontSize=12;fontStyle=0;aspect=fixed;pointerEvents=1;shape=mxgraph.aws4.forums;" parent="zOEphUjOcovV0QVA03cs-16" vertex="1">
          <mxGeometry x="15" y="160" width="130" height="126.67" as="geometry" />
        </mxCell>
        <mxCell id="zOEphUjOcovV0QVA03cs-20" value="&lt;font style=&quot;font-size: 14px&quot;&gt;EMR集群&lt;/font&gt;" style="text;html=1;strokeColor=none;fillColor=none;align=center;verticalAlign=middle;whiteSpace=wrap;rounded=0;dashed=1;" parent="zOEphUjOcovV0QVA03cs-15" vertex="1">
          <mxGeometry x="42" width="69" height="20" as="geometry" />
        </mxCell>
        <mxCell id="zOEphUjOcovV0QVA03cs-21" style="edgeStyle=orthogonalEdgeStyle;rounded=0;orthogonalLoop=1;jettySize=auto;html=1;exitX=0;exitY=0.5;exitDx=0;exitDy=0;entryX=1;entryY=0.25;entryDx=0;entryDy=0;" parent="1" source="zOEphUjOcovV0QVA03cs-17" target="zOEphUjOcovV0QVA03cs-7" edge="1">
          <mxGeometry relative="1" as="geometry" />
        </mxCell>
        <mxCell id="zOEphUjOcovV0QVA03cs-22" style="edgeStyle=orthogonalEdgeStyle;rounded=0;orthogonalLoop=1;jettySize=auto;html=1;exitX=0;exitY=0.5;exitDx=0;exitDy=0;entryX=1;entryY=0.5;entryDx=0;entryDy=0;" parent="1" source="zOEphUjOcovV0QVA03cs-17" target="zOEphUjOcovV0QVA03cs-11" edge="1">
          <mxGeometry relative="1" as="geometry" />
        </mxCell>
        <mxCell id="zOEphUjOcovV0QVA03cs-23" style="edgeStyle=orthogonalEdgeStyle;rounded=0;orthogonalLoop=1;jettySize=auto;html=1;exitX=0;exitY=0.5;exitDx=0;exitDy=0;entryX=1;entryY=0.5;entryDx=0;entryDy=0;" parent="1" source="zOEphUjOcovV0QVA03cs-17" target="zOEphUjOcovV0QVA03cs-14" edge="1">
          <mxGeometry relative="1" as="geometry" />
        </mxCell>
        <mxCell id="zOEphUjOcovV0QVA03cs-24" value="&lt;font size=&quot;1&quot; color=&quot;#ff0000&quot;&gt;&lt;b style=&quot;font-size: 14px&quot;&gt;只读权限&lt;/b&gt;&lt;/font&gt;" style="text;html=1;strokeColor=none;fillColor=none;align=center;verticalAlign=middle;whiteSpace=wrap;rounded=0;dashed=1;" parent="1" vertex="1">
          <mxGeometry x="443" y="359" width="72" height="20" as="geometry" />
        </mxCell>
        <mxCell id="zOEphUjOcovV0QVA03cs-25" value="子龙从库" style="text;html=1;strokeColor=none;fillColor=none;align=center;verticalAlign=middle;whiteSpace=wrap;rounded=0;dashed=1;" parent="1" vertex="1">
          <mxGeometry x="330" y="226" width="67" height="20" as="geometry" />
        </mxCell>
        <mxCell id="zOEphUjOcovV0QVA03cs-26" value="" style="group" parent="1" vertex="1" connectable="0">
          <mxGeometry x="851" y="192" width="86.00000000000006" height="109" as="geometry" />
        </mxCell>
        <mxCell id="zOEphUjOcovV0QVA03cs-27" value="" style="group" parent="zOEphUjOcovV0QVA03cs-26" vertex="1" connectable="0">
          <mxGeometry width="86.00000000000006" height="109" as="geometry" />
        </mxCell>
        <mxCell id="zOEphUjOcovV0QVA03cs-28" value="" style="outlineConnect=0;fillColor=#ffe6cc;strokeColor=#d79b00;dashed=0;verticalLabelPosition=bottom;verticalAlign=top;align=center;html=1;fontSize=12;fontStyle=0;aspect=fixed;pointerEvents=1;shape=mxgraph.aws4.generic_database;" parent="zOEphUjOcovV0QVA03cs-27" vertex="1">
          <mxGeometry x="0.5500000000000114" width="82.45" height="109" as="geometry" />
        </mxCell>
        <mxCell id="zOEphUjOcovV0QVA03cs-29" value="&lt;span style=&quot;font-size: 14px&quot;&gt;EPP公用&lt;br&gt;数据库&lt;/span&gt;" style="text;html=1;strokeColor=none;fillColor=none;align=center;verticalAlign=middle;whiteSpace=wrap;rounded=0;dashed=1;" parent="zOEphUjOcovV0QVA03cs-27" vertex="1">
          <mxGeometry y="43" width="86" height="20" as="geometry" />
        </mxCell>
        <mxCell id="zOEphUjOcovV0QVA03cs-30" style="edgeStyle=orthogonalEdgeStyle;rounded=0;orthogonalLoop=1;jettySize=auto;html=1;exitX=1;exitY=0.5;exitDx=0;exitDy=0;" parent="1" source="zOEphUjOcovV0QVA03cs-17" target="zOEphUjOcovV0QVA03cs-29" edge="1">
          <mxGeometry relative="1" as="geometry" />
        </mxCell>
        <mxCell id="zOEphUjOcovV0QVA03cs-31" value="" style="group" parent="1" vertex="1" connectable="0">
          <mxGeometry x="1063" y="277" width="151" height="242" as="geometry" />
        </mxCell>
        <mxCell id="zOEphUjOcovV0QVA03cs-32" value="" style="rounded=1;whiteSpace=wrap;html=1;dashed=1;fillColor=#f5f5f5;strokeColor=#666666;fontColor=#333333;" parent="zOEphUjOcovV0QVA03cs-31" vertex="1">
          <mxGeometry width="151" height="242.00000000000003" as="geometry" />
        </mxCell>
        <mxCell id="zOEphUjOcovV0QVA03cs-33" value="" style="group" parent="zOEphUjOcovV0QVA03cs-31" vertex="1" connectable="0">
          <mxGeometry x="14.12230215827338" y="15.33031674208145" width="117.32374100719423" height="212.43438914027152" as="geometry" />
        </mxCell>
        <mxCell id="zOEphUjOcovV0QVA03cs-34" value="" style="group" parent="zOEphUjOcovV0QVA03cs-33" vertex="1" connectable="0">
          <mxGeometry width="117.32374100719423" height="113.88235294117648" as="geometry" />
        </mxCell>
        <mxCell id="zOEphUjOcovV0QVA03cs-35" value="" style="outlineConnect=0;fillColor=#dae8fc;strokeColor=#6c8ebf;dashed=0;verticalLabelPosition=bottom;verticalAlign=top;align=center;html=1;fontSize=12;fontStyle=0;aspect=fixed;pointerEvents=1;shape=mxgraph.aws4.traditional_server;" parent="zOEphUjOcovV0QVA03cs-34" vertex="1">
          <mxGeometry y="28.47058823529412" width="48.88489208633093" height="84.73381294964028" as="geometry" />
        </mxCell>
        <mxCell id="zOEphUjOcovV0QVA03cs-36" value="" style="outlineConnect=0;fillColor=#dae8fc;strokeColor=#6c8ebf;dashed=0;verticalLabelPosition=bottom;verticalAlign=top;align=center;html=1;fontSize=12;fontStyle=0;aspect=fixed;pointerEvents=1;shape=mxgraph.aws4.traditional_server;" parent="zOEphUjOcovV0QVA03cs-34" vertex="1">
          <mxGeometry x="68.43884892086331" y="28.47058823529412" width="48.88489208633093" height="84.73381294964028" as="geometry" />
        </mxCell>
        <mxCell id="zOEphUjOcovV0QVA03cs-37" value="&lt;font style=&quot;font-size: 15px&quot;&gt;仲谋&lt;/font&gt;" style="text;html=1;strokeColor=none;fillColor=none;align=center;verticalAlign=middle;whiteSpace=wrap;rounded=0;dashed=1;" parent="zOEphUjOcovV0QVA03cs-34" vertex="1">
          <mxGeometry x="38.02158273381295" width="43.453237410071935" height="21.900452488687783" as="geometry" />
        </mxCell>
        <mxCell id="zOEphUjOcovV0QVA03cs-38" value="主" style="text;html=1;strokeColor=none;fillColor=none;align=center;verticalAlign=middle;whiteSpace=wrap;rounded=0;dashed=1;" parent="zOEphUjOcovV0QVA03cs-34" vertex="1">
          <mxGeometry x="2.715827338129496" y="75.55656108597286" width="43.453237410071935" height="21.900452488687783" as="geometry" />
        </mxCell>
        <mxCell id="zOEphUjOcovV0QVA03cs-39" value="从" style="text;html=1;strokeColor=none;fillColor=none;align=center;verticalAlign=middle;whiteSpace=wrap;rounded=0;dashed=1;" parent="zOEphUjOcovV0QVA03cs-34" vertex="1">
          <mxGeometry x="68.43884892086331" y="77.74660633484163" width="43.453237410071935" height="21.900452488687783" as="geometry" />
        </mxCell>
        <mxCell id="zOEphUjOcovV0QVA03cs-40" value="" style="group" parent="zOEphUjOcovV0QVA03cs-33" vertex="1" connectable="0">
          <mxGeometry x="27.15827338129496" y="127.02262443438916" width="69.5251798561151" height="85.41176470588236" as="geometry" />
        </mxCell>
        <mxCell id="zOEphUjOcovV0QVA03cs-41" value="" style="outlineConnect=0;fillColor=#d5e8d4;strokeColor=#82b366;dashed=0;verticalLabelPosition=bottom;verticalAlign=top;align=center;html=1;fontSize=12;fontStyle=0;aspect=fixed;pointerEvents=1;shape=mxgraph.aws4.traditional_server;" parent="zOEphUjOcovV0QVA03cs-40" vertex="1">
          <mxGeometry x="10.320143884892085" width="48.88489208633093" height="84.73381294964028" as="geometry" />
        </mxCell>
        <mxCell id="zOEphUjOcovV0QVA03cs-42" value="&lt;font style=&quot;font-size: 13px&quot;&gt;医院&lt;br&gt;日报&lt;/font&gt;" style="text;html=1;strokeColor=none;fillColor=none;align=center;verticalAlign=middle;whiteSpace=wrap;rounded=0;dashed=1;" parent="zOEphUjOcovV0QVA03cs-40" vertex="1">
          <mxGeometry y="50.371040723981906" width="69.5251798561151" height="21.900452488687783" as="geometry" />
        </mxCell>
        <mxCell id="zOEphUjOcovV0QVA03cs-43" value="" style="group" parent="1" vertex="1" connectable="0">
          <mxGeometry x="1023" y="89" width="97" height="93" as="geometry" />
        </mxCell>
        <mxCell id="zOEphUjOcovV0QVA03cs-44" value="" style="aspect=fixed;html=1;points=[];align=center;image;fontSize=12;image=img/lib/mscae/Cache_Redis_Product.svg;dashed=1;" parent="zOEphUjOcovV0QVA03cs-43" vertex="1">
          <mxGeometry x="13.355072463768117" width="64.58333333333334" height="54.25000000000001" as="geometry" />
        </mxCell>
        <mxCell id="zOEphUjOcovV0QVA03cs-45" value="&lt;font style=&quot;font-size: 13px&quot;&gt;EPP公用Redis&lt;/font&gt;" style="text;html=1;strokeColor=none;fillColor=none;align=center;verticalAlign=middle;whiteSpace=wrap;rounded=0;dashed=1;" parent="zOEphUjOcovV0QVA03cs-43" vertex="1">
          <mxGeometry y="58.12500000000001" width="97.00000000000001" height="34.875" as="geometry" />
        </mxCell>
        <mxCell id="zOEphUjOcovV0QVA03cs-46" value="&lt;font style=&quot;font-size: 15px&quot; color=&quot;#ff0000&quot;&gt;&lt;b&gt;可读可写&lt;/b&gt;&lt;/font&gt;" style="text;html=1;strokeColor=none;fillColor=none;align=center;verticalAlign=middle;whiteSpace=wrap;rounded=0;dashed=1;" parent="1" vertex="1">
          <mxGeometry x="768" y="250" width="79" height="20" as="geometry" />
        </mxCell>
        <mxCell id="zOEphUjOcovV0QVA03cs-49" style="edgeStyle=orthogonalEdgeStyle;rounded=0;orthogonalLoop=1;jettySize=auto;html=1;entryX=0.5;entryY=1;entryDx=0;entryDy=0;" parent="1" source="zOEphUjOcovV0QVA03cs-32" target="zOEphUjOcovV0QVA03cs-45" edge="1">
          <mxGeometry relative="1" as="geometry" />
        </mxCell>
        <mxCell id="zOEphUjOcovV0QVA03cs-50" style="edgeStyle=orthogonalEdgeStyle;rounded=0;orthogonalLoop=1;jettySize=auto;html=1;" parent="1" source="zOEphUjOcovV0QVA03cs-32" target="zOEphUjOcovV0QVA03cs-2" edge="1">
          <mxGeometry relative="1" as="geometry" />
        </mxCell>
        <mxCell id="zOEphUjOcovV0QVA03cs-51" value="ACP接口" style="text;html=1;strokeColor=none;fillColor=none;align=center;verticalAlign=middle;whiteSpace=wrap;rounded=0;dashed=1;" parent="1" vertex="1">
          <mxGeometry x="1142.5" y="197" width="65" height="20" as="geometry" />
        </mxCell>
        <mxCell id="zOEphUjOcovV0QVA03cs-48" value="&lt;font style=&quot;font-size: 15px&quot;&gt;只读权限&lt;/font&gt;" style="text;html=1;strokeColor=none;fillColor=none;align=center;verticalAlign=middle;whiteSpace=wrap;rounded=0;dashed=1;" parent="1" vertex="1">
          <mxGeometry x="947" y="254" width="69" height="20" as="geometry" />
        </mxCell>
        <mxCell id="N-p0c4gEzNbc_jAWXQmp-2" style="edgeStyle=orthogonalEdgeStyle;rounded=0;orthogonalLoop=1;jettySize=auto;html=1;entryX=1;entryY=0.5;entryDx=0;entryDy=0;" parent="1" source="zOEphUjOcovV0QVA03cs-32" target="zOEphUjOcovV0QVA03cs-29" edge="1">
          <mxGeometry relative="1" as="geometry">
            <mxPoint x="1054" y="380.5" as="sourcePoint" />
            <mxPoint x="911" y="246" as="targetPoint" />
            <Array as="points">
              <mxPoint x="1034" y="381" />
              <mxPoint x="1034" y="246" />
            </Array>
          </mxGeometry>
        </mxCell>
        <mxCell id="N-p0c4gEzNbc_jAWXQmp-3" value="&lt;font style=&quot;font-size: 15px&quot;&gt;访问集群特定端口&lt;/font&gt;" style="text;html=1;strokeColor=none;fillColor=none;align=center;verticalAlign=middle;whiteSpace=wrap;rounded=0;" parent="1" vertex="1">
          <mxGeometry x="809" y="429" width="138" height="20" as="geometry" />
        </mxCell>
        <mxCell id="2CX6G7BixtwcyF8iLQ-1-1" style="edgeStyle=orthogonalEdgeStyle;rounded=0;orthogonalLoop=1;jettySize=auto;html=1;exitX=0;exitY=0.75;exitDx=0;exitDy=0;entryX=1;entryY=0.75;entryDx=0;entryDy=0;" edge="1" parent="1" source="zOEphUjOcovV0QVA03cs-32" target="zOEphUjOcovV0QVA03cs-17">
          <mxGeometry relative="1" as="geometry" />
        </mxCell>
        <mxCell id="2CX6G7BixtwcyF8iLQ-1-2" value="小暖数据库" style="text;html=1;strokeColor=none;fillColor=none;align=center;verticalAlign=middle;whiteSpace=wrap;rounded=0;dashed=1;" vertex="1" parent="1">
          <mxGeometry x="320" y="355" width="67" height="20" as="geometry" />
        </mxCell>
        <mxCell id="2CX6G7BixtwcyF8iLQ-1-3" value="阿里云中间库" style="text;html=1;strokeColor=none;fillColor=none;align=center;verticalAlign=middle;whiteSpace=wrap;rounded=0;dashed=1;" vertex="1" parent="1">
          <mxGeometry x="317" y="484" width="85" height="20" as="geometry" />
        </mxCell>
      </root>
    </mxGraphModel>
  </diagram>
</mxfile>
